<?xml version="1.0" standalone="no"?>
<!DOCTYPE svg PUBLIC "-//W3C//DTD SVG 20010904//EN"
 "http://www.w3.org/TR/2001/REC-SVG-20010904/DTD/svg10.dtd">
<svg version="1.0" xmlns="http://www.w3.org/2000/svg"
 width="225.000000pt" height="225.000000pt" viewBox="0 0 225.000000 225.000000"
 preserveAspectRatio="xMidYMid meet">

<g transform="translate(0.000000,225.000000) scale(0.100000,-0.100000)"
fill="#ffffff" stroke="none">
<path d="M1000 2219 c-252 -29 -477 -141 -660 -328 -275 -282 -378 -668 -280
-1044 105 -399 442 -718 850 -803 100 -21 302 -23 400 -5 402 75 733 359 858
736 54 161 71 375 43 535 -75 423 -399 775 -809 880 -82 20 -233 41 -292 39
-19 -1 -69 -5 -110 -10z m230 -89 c222 -25 414 -113 572 -259 104 -97 168
-182 229 -306 74 -151 101 -267 101 -440 0 -119 -4 -155 -26 -240 -175 -671
-930 -979 -1516 -618 -105 65 -271 235 -331 338 -180 311 -194 653 -38 969
164 331 511 551 889 565 19 0 73 -4 120 -9z"/>
<path d="M1173 1736 c-89 -28 -147 -81 -189 -171 -21 -45 -24 -64 -24 -187 l0
-138 -85 0 -85 0 0 -130 0 -130 85 0 85 0 0 -300 0 -300 125 0 125 0 0 300 0
300 130 0 130 0 0 130 0 130 -131 0 -131 0 4 106 c4 140 8 144 154 144 l104 0
0 130 0 130 -127 -1 c-75 0 -145 -6 -170 -13z"/>
</g>
</svg>
