<?xml version="1.0" standalone="no"?>
<!DOCTYPE svg PUBLIC "-//W3C//DTD SVG 20010904//EN"
 "http://www.w3.org/TR/2001/REC-SVG-20010904/DTD/svg10.dtd">
<svg version="1.0" xmlns="http://www.w3.org/2000/svg"
 width="820.000000pt" height="553.000000pt" viewBox="0 0 820.000000 553.000000"
 preserveAspectRatio="xMidYMid meet">

<g transform="translate(0.000000,553.000000) scale(0.100000,-0.100000)"
fill="#ffffff" stroke="none">
<path d="M3905 5110 c-300 -27 -570 -102 -840 -235 -480 -235 -847 -602 -1080
-1080 -166 -338 -238 -654 -238 -1035 0 -267 31 -476 108 -720 167 -527 544
-1004 1023 -1294 414 -250 897 -369 1370 -336 550 39 1026 240 1435 606 722
648 967 1708 606 2617 -257 646 -812 1164 -1469 1372 -284 89 -635 130 -915
105z m570 -209 c465 -88 845 -288 1175 -621 313 -314 519 -720 596 -1174 21
-127 29 -427 15 -565 -52 -500 -270 -959 -621 -1311 -327 -329 -716 -529
-1195 -616 -143 -26 -547 -26 -690 0 -583 106 -1055 393 -1400 851 -196 261
-332 575 -396 920 -27 141 -37 464 -20 615 107 938 806 1701 1731 1890 167 34
229 39 465 35 181 -2 254 -7 340 -24z"/>
<path d="M3341 3924 c-199 -53 -356 -211 -406 -409 -23 -89 -22 -1422 0 -1510
53 -202 208 -357 410 -410 88 -22 1421 -23 1510 0 199 51 359 211 410 410 22
89 22 1421 0 1510 -51 199 -211 359 -410 410 -86 22 -1432 21 -1514 -1z m1500
-140 c133 -39 244 -151 283 -283 14 -48 16 -143 16 -741 0 -753 1 -744 -60
-840 -34 -53 -100 -118 -150 -148 -89 -52 -92 -52 -830 -52 -738 0 -741 0
-830 52 -50 30 -116 95 -150 148 -61 96 -60 87 -60 840 0 599 2 693 16 741 38
129 145 239 273 280 52 16 112 18 747 18 604 1 697 -1 745 -15z"/>
<path d="M4816 3619 c-115 -31 -119 -196 -6 -230 47 -14 79 -7 119 27 94 79 8
235 -113 203z"/>
<path d="M3920 3500 c-144 -36 -264 -105 -366 -212 -143 -149 -214 -323 -214
-528 0 -335 208 -617 535 -727 72 -24 94 -27 225 -27 131 0 153 3 225 27 245
82 420 257 502 502 24 72 27 94 27 225 0 131 -3 153 -27 225 -111 330 -394
536 -732 534 -62 0 -129 -8 -175 -19z m318 -152 c157 -29 327 -165 400 -319
48 -99 62 -162 62 -269 0 -169 -57 -308 -175 -425 -117 -118 -256 -175 -425
-175 -169 0 -308 57 -425 175 -118 117 -175 256 -175 425 0 107 14 170 62 269
67 140 209 262 361 311 83 26 204 30 315 8z"/>
</g>
</svg>
