<?xml version="1.0" standalone="no"?>
<!DOCTYPE svg PUBLIC "-//W3C//DTD SVG 20010904//EN"
 "http://www.w3.org/TR/2001/REC-SVG-20010904/DTD/svg10.dtd">
<svg version="1.0" xmlns="http://www.w3.org/2000/svg"
 width="225.000000pt" height="225.000000pt" viewBox="0 0 225.000000 225.000000"
 preserveAspectRatio="xMidYMid meet">

<g transform="translate(0.000000,225.000000) scale(0.100000,-0.100000)"
fill="#ffffff" stroke="none">
<path d="M1010 2244 c-266 -34 -492 -144 -676 -328 -157 -156 -266 -355 -310
-566 -25 -116 -25 -334 0 -450 91 -433 443 -785 876 -876 116 -25 334 -25 450
0 364 76 686 348 819 691 57 147 75 244 75 410 0 166 -18 263 -75 410 -132
341 -458 617 -814 690 -80 16 -279 27 -345 19z m363 -118 c179 -46 333 -132
469 -264 419 -405 419 -1069 0 -1474 -269 -260 -631 -354 -992 -257 -348 94
-631 385 -727 747 -22 84 -26 118 -26 247 0 129 4 163 26 247 147 557 704 892
1250 754z"/>
<path d="M1339 1680 c-144 -24 -239 -132 -239 -271 l0 -68 -37 6 c-189 26
-337 99 -475 231 l-66 63 -13 -38 c-31 -94 -6 -228 57 -302 32 -37 34 -41 14
-41 -11 0 -36 6 -54 14 l-33 14 9 -51 c5 -28 18 -68 28 -88 23 -44 91 -104
137 -121 47 -17 41 -28 -17 -28 l-50 0 19 -38 c39 -76 126 -136 226 -154 16
-3 10 -10 -30 -36 -74 -48 -190 -82 -283 -82 l-77 -1 66 -34 c146 -75 270 -98
438 -83 107 10 245 52 329 100 219 125 365 369 388 648 7 77 7 78 65 146 33
37 58 69 56 70 -1 1 -33 -6 -72 -17 l-69 -19 36 38 c37 38 73 100 64 109 -2 3
-34 -7 -70 -21 -80 -32 -97 -32 -126 -1 -42 44 -139 69 -221 55z"/>
</g>
</svg>
